<svg xmlns="http://www.w3.org/2000/svg" xmlns:xlink="http://www.w3.org/1999/xlink" width="300" zoomAndPan="magnify" viewBox="0 0 224.87999 60" height="80" preserveAspectRatio="xMidYMid meet" version="1.0"><defs><g/><clipPath id="a1d924c852"><path d="M 27.359375 1.871094 L 79.308594 1.871094 L 79.308594 58 L 27.359375 58 Z M 27.359375 1.871094 " clip-rule="nonzero"/></clipPath></defs><g fill="#0065f1" fill-opacity="1"><g transform="translate(100.793063, 40.978405)"><g><path d="M 0.28125 -22.671875 L 0.28125 -28.34375 L 20.203125 -28.34375 L 20.203125 -22.671875 L 13.46875 -22.671875 L 13.46875 0 L 7.015625 0 L 7.015625 -22.671875 Z M 0.28125 -22.671875 "/></g></g></g><g fill="#0065f1" fill-opacity="1"><g transform="translate(121.270141, 40.978405)"><g><path d="M 7.796875 -17.625 L 7.796875 -9.25 C 7.796875 -7.5 8.054688 -6.257812 8.578125 -5.53125 C 9.109375 -4.800781 10.003906 -4.4375 11.265625 -4.4375 C 12.523438 -4.4375 13.414062 -4.800781 13.9375 -5.53125 C 14.46875 -6.257812 14.734375 -7.5 14.734375 -9.25 L 14.734375 -17.625 L 20.828125 -17.625 L 20.828125 -7.765625 C 20.828125 -4.835938 20.0625 -2.722656 18.53125 -1.421875 C 17.007812 -0.128906 14.585938 0.515625 11.265625 0.515625 C 7.941406 0.515625 5.519531 -0.128906 4 -1.421875 C 2.476562 -2.722656 1.71875 -4.835938 1.71875 -7.765625 L 1.71875 -17.625 Z M 7.796875 -17.625 "/></g></g></g><g fill="#0065f1" fill-opacity="1"><g transform="translate(143.808669, 40.978405)"><g><path d="M 2.0625 0 L 2.0625 -17.625 L 8.140625 -17.625 L 8.140625 -15.765625 L 8.21875 -15.765625 C 9.789062 -17.347656 11.472656 -18.140625 13.265625 -18.140625 C 14.128906 -18.140625 14.988281 -18.023438 15.84375 -17.796875 C 16.707031 -17.566406 17.535156 -17.210938 18.328125 -16.734375 C 19.117188 -16.253906 19.757812 -15.570312 20.25 -14.6875 C 20.75 -13.800781 21 -12.773438 21 -11.609375 L 21 0 L 14.90625 0 L 14.90625 -9.96875 C 14.90625 -10.882812 14.613281 -11.6875 14.03125 -12.375 C 13.445312 -13.0625 12.6875 -13.40625 11.75 -13.40625 C 10.832031 -13.40625 10 -13.046875 9.25 -12.328125 C 8.507812 -11.617188 8.140625 -10.832031 8.140625 -9.96875 L 8.140625 0 Z M 2.0625 0 "/></g></g></g><g fill="#0065f1" fill-opacity="1"><g transform="translate(166.518972, 40.978405)"><g><path d="M 19.890625 -7.96875 L 7.109375 -7.96875 C 7.109375 -6.726562 7.507812 -5.8125 8.3125 -5.21875 C 9.113281 -4.625 9.984375 -4.328125 10.921875 -4.328125 C 11.910156 -4.328125 12.691406 -4.457031 13.265625 -4.71875 C 13.835938 -4.988281 14.488281 -5.507812 15.21875 -6.28125 L 19.625 -4.09375 C 17.789062 -1.019531 14.742188 0.515625 10.484375 0.515625 C 7.828125 0.515625 5.546875 -0.394531 3.640625 -2.21875 C 1.742188 -4.039062 0.796875 -6.234375 0.796875 -8.796875 C 0.796875 -11.359375 1.742188 -13.554688 3.640625 -15.390625 C 5.546875 -17.222656 7.828125 -18.140625 10.484375 -18.140625 C 13.273438 -18.140625 15.546875 -17.332031 17.296875 -15.71875 C 19.046875 -14.101562 19.921875 -11.796875 19.921875 -8.796875 C 19.921875 -8.378906 19.910156 -8.101562 19.890625 -7.96875 Z M 7.28125 -11.34375 L 13.984375 -11.34375 C 13.847656 -12.257812 13.488281 -12.960938 12.90625 -13.453125 C 12.320312 -13.941406 11.570312 -14.1875 10.65625 -14.1875 C 9.644531 -14.1875 8.84375 -13.921875 8.25 -13.390625 C 7.65625 -12.867188 7.332031 -12.1875 7.28125 -11.34375 Z M 7.28125 -11.34375 "/></g></g></g><g fill="#0065f1" fill-opacity="1"><g transform="translate(187.23655, 40.978405)"><g><path d="M 9.71875 -18.140625 C 10.726562 -18.140625 11.722656 -18.023438 12.703125 -17.796875 C 13.691406 -17.566406 14.425781 -17.335938 14.90625 -17.109375 L 15.640625 -16.765625 L 13.640625 -12.78125 C 12.265625 -13.507812 10.957031 -13.875 9.71875 -13.875 C 9.03125 -13.875 8.539062 -13.800781 8.25 -13.65625 C 7.96875 -13.507812 7.828125 -13.226562 7.828125 -12.8125 C 7.828125 -12.71875 7.835938 -12.625 7.859375 -12.53125 C 7.890625 -12.445312 7.9375 -12.363281 8 -12.28125 C 8.070312 -12.195312 8.132812 -12.125 8.1875 -12.0625 C 8.25 -12.007812 8.347656 -11.945312 8.484375 -11.875 C 8.617188 -11.8125 8.726562 -11.765625 8.8125 -11.734375 C 8.894531 -11.703125 9.023438 -11.648438 9.203125 -11.578125 C 9.390625 -11.503906 9.53125 -11.453125 9.625 -11.421875 C 9.71875 -11.390625 9.867188 -11.335938 10.078125 -11.265625 C 10.296875 -11.203125 10.460938 -11.15625 10.578125 -11.125 C 11.285156 -10.925781 11.90625 -10.695312 12.4375 -10.4375 C 12.96875 -10.1875 13.523438 -9.84375 14.109375 -9.40625 C 14.691406 -8.976562 15.140625 -8.429688 15.453125 -7.765625 C 15.773438 -7.097656 15.9375 -6.34375 15.9375 -5.5 C 15.9375 -1.488281 13.15625 0.515625 7.59375 0.515625 C 6.332031 0.515625 5.132812 0.320312 4 -0.0625 C 2.863281 -0.457031 2.046875 -0.847656 1.546875 -1.234375 L 0.796875 -1.859375 L 3.265625 -6.015625 C 3.441406 -5.847656 3.679688 -5.65625 3.984375 -5.4375 C 4.285156 -5.226562 4.820312 -4.929688 5.59375 -4.546875 C 6.375 -4.171875 7.050781 -3.984375 7.625 -3.984375 C 8.882812 -3.984375 9.515625 -4.40625 9.515625 -5.25 C 9.515625 -5.644531 9.351562 -5.953125 9.03125 -6.171875 C 8.71875 -6.390625 8.175781 -6.632812 7.40625 -6.90625 C 6.632812 -7.175781 6.03125 -7.425781 5.59375 -7.65625 C 4.5 -8.226562 3.628906 -8.875 2.984375 -9.59375 C 2.347656 -10.320312 2.03125 -11.28125 2.03125 -12.46875 C 2.03125 -14.257812 2.722656 -15.648438 4.109375 -16.640625 C 5.492188 -17.640625 7.363281 -18.140625 9.71875 -18.140625 Z M 9.71875 -18.140625 "/></g></g></g><g clip-path="url(#a1d924c852)"><path fill="#0065f1" d="M 55.40625 55.933594 L 55.40625 3.875 C 55.40625 2.769531 54.507812 1.871094 53.402344 1.871094 C 52.296875 1.871094 51.402344 2.769531 51.402344 3.875 L 51.402344 55.933594 C 51.402344 57.039062 52.296875 57.933594 53.402344 57.933594 C 54.507812 57.933594 55.40625 57.039062 55.40625 55.933594 Z M 63.414062 45.921875 L 63.414062 13.886719 C 63.414062 12.78125 62.519531 11.882812 61.414062 11.882812 C 60.308594 11.882812 59.410156 12.78125 59.410156 13.886719 L 59.410156 45.921875 C 59.410156 47.027344 60.308594 47.921875 61.414062 47.921875 C 62.519531 47.921875 63.414062 47.027344 63.414062 45.921875 Z M 47.398438 45.921875 L 47.398438 13.886719 C 47.398438 12.78125 46.5 11.882812 45.394531 11.882812 C 44.289062 11.882812 43.390625 12.78125 43.390625 13.886719 L 43.390625 45.921875 C 43.390625 47.027344 44.289062 47.921875 45.394531 47.921875 C 46.5 47.921875 47.398438 47.027344 47.398438 45.921875 Z M 71.421875 39.914062 L 71.421875 19.890625 C 71.421875 18.785156 70.527344 17.890625 69.421875 17.890625 C 68.316406 17.890625 67.417969 18.785156 67.417969 19.890625 L 67.417969 39.914062 C 67.417969 41.019531 68.316406 41.917969 69.421875 41.917969 C 70.527344 41.917969 71.421875 41.019531 71.421875 39.914062 Z M 39.386719 39.914062 L 39.386719 19.890625 C 39.386719 18.785156 38.492188 17.890625 37.386719 17.890625 C 36.28125 17.890625 35.382812 18.785156 35.382812 19.890625 L 35.382812 39.914062 C 35.382812 41.019531 36.28125 41.917969 37.386719 41.917969 C 38.492188 41.917969 39.386719 41.019531 39.386719 39.914062 Z M 31.378906 35.910156 L 31.378906 23.898438 C 31.378906 22.792969 30.480469 21.894531 29.378906 21.894531 C 28.273438 21.894531 27.375 22.792969 27.375 23.898438 L 27.375 35.910156 C 27.375 37.015625 28.273438 37.914062 29.378906 37.914062 C 30.480469 37.914062 31.378906 37.015625 31.378906 35.910156 Z M 79.433594 35.910156 L 79.433594 23.898438 C 79.433594 22.792969 78.535156 21.894531 77.429688 21.894531 C 76.324219 21.894531 75.429688 22.792969 75.429688 23.898438 L 75.429688 35.910156 C 75.429688 37.015625 76.324219 37.914062 77.429688 37.914062 C 78.535156 37.914062 79.433594 37.015625 79.433594 35.910156 Z M 79.433594 35.910156 " fill-opacity="1" fill-rule="evenodd"/></g></svg>